<svg width="76" height="47" viewBox="0 0 76 47" fill="none" xmlns="http://www.w3.org/2000/svg">
<path d="M61.23 46.2001C56.83 45.8801 52.62 44.8201 48.48 43.3201C44.4 41.8401 40.28 40.4501 36.14 39.1601C33.76 38.4201 31.31 37.9401 28.88 37.3801C25.74 36.6501 22.51 36.2001 19.46 35.1901C15.81 33.9801 12.03 32.9201 8.89999 30.4801C5.81999 28.0801 3.22999 25.2001 1.81999 21.5601C0.469991 18.0801 1.33999 13.5501 5.55999 11.9601C6.37999 13.2401 7.13999 14.3901 7.85999 15.5801C8.11999 16.0101 8.21999 16.5401 8.44999 16.9901C8.91999 17.9001 9.29999 18.9001 9.94999 19.6501C12.3 22.3501 15.29 24.1501 18.66 25.2501C20.37 25.8101 22.22 25.9701 23.99 26.3801C24.72 26.5501 25.41 26.9201 26.11 27.1801C27.9 27.8501 29.69 28.5301 31.49 29.1601C32.73 29.5901 34.01 29.8901 35.23 30.3601C35.97 30.6501 36.63 31.1401 37.31 31.5801C38.78 32.5301 40.3 33.3301 42.13 33.0401C43.89 32.7601 45.46 33.0701 46.87 34.2001C47.19 34.4601 47.65 34.6401 48.07 34.6801C50.11 34.8501 52.16 35.1101 54.19 35.0501C55.81 35.0001 57.2 35.3501 58.61 36.0901C60.03 36.8301 61.56 37.3401 63.02 38.0001C63.57 38.2501 64.38 38.2101 64.56 39.2401C65.77 38.8701 67 38.5001 68.07 38.1701C68.37 36.9801 68.58 35.9601 68.93 34.9801C68.99 34.8101 69.8 34.7101 70.06 34.8801C70.48 35.1501 70.89 35.6401 71.01 36.1101C71.42 37.6601 71.46 39.1801 70.72 40.7301C68.69 44.9801 65.96 46.5501 61.21 46.2101M10.77 18.3801C10.19 19.0201 9.82999 18.7101 9.23999 16.9401C9.85999 17.5301 10.32 17.9501 10.77 18.3801ZM15.98 23.1901C15.98 23.0601 15.98 22.9401 15.98 22.8101C16.41 22.7901 16.84 22.7701 17.41 22.7501C16.95 23.9301 16.45 23.4401 15.99 23.1901M19.29 24.1401C18.78 24.1601 18.27 24.1801 17.76 24.2001V23.6201C18.27 23.6501 18.78 23.6901 19.28 23.7201C19.28 23.8601 19.28 24.0001 19.28 24.1401M23.06 25.1201C22.44 25.1201 21.83 25.1201 21.21 25.1301C21.21 24.9801 21.21 24.8301 21.21 24.6801C21.83 24.7001 22.44 24.7101 23.06 24.7301C23.06 24.8601 23.06 24.9901 23.06 25.1201ZM25.92 25.6601C25.24 25.6601 24.56 25.6701 23.87 25.6801C23.86 25.5101 23.85 25.3401 23.84 25.1801C24.53 25.2101 25.22 25.2301 25.91 25.2601C25.91 25.3901 25.91 25.5301 25.91 25.6601M28.35 26.1101C27.57 26.4801 27.02 27.2001 26.21 26.3101C26.81 25.6201 27.47 25.7301 28.35 26.1101ZM30.14 26.9601C29.44 27.1801 28.85 27.3601 28.26 27.5501C28.23 27.4501 28.2 27.3501 28.17 27.2501C28.84 27.2901 29.13 25.9601 30.14 26.9601ZM39.53 30.0201C38.77 30.8734 37.8 30.7768 36.62 29.7301C37.08 29.6601 37.53 29.5901 38.07 29.5101C38.07 29.9601 38.07 30.2301 38.07 30.5201C38.61 30.3301 39.07 30.1701 39.53 30.0101M67.72 36.5301C67.33 38.0801 66.05 38.4401 64.39 37.4201C65.62 37.0901 66.63 36.8201 67.72 36.5301ZM67.98 35.4301C68.02 35.5601 68.06 35.6901 68.1 35.8201C67.14 36.0601 66.19 36.3001 65.23 36.5401C65.2 36.4801 65.18 36.4201 65.15 36.3601C66.09 36.0501 67.04 35.7401 67.98 35.4301ZM64.88 34.5301C64.91 34.6201 64.94 34.7001 64.97 34.7901C64.16 35.0601 63.35 35.3301 62.54 35.6001C62.5 35.4801 62.47 35.3701 62.43 35.2501C63.25 35.0101 64.07 34.7701 64.88 34.5201M62.77 34.1501C62.81 34.2401 62.85 34.3401 62.89 34.4301C61.98 34.7601 61.08 35.0801 60.17 35.4001C60.21 35.5501 60.26 35.7001 60.3 35.8501C60.62 35.8501 60.94 35.8101 61.24 35.8501C61.55 35.9001 61.83 36.0901 62.14 36.1301C62.47 36.1701 62.85 36.1701 63.16 36.0601C64.42 35.6401 65.66 35.1701 66.92 34.7201C66.97 34.8701 67.03 35.0301 67.09 35.1801C66.17 35.4501 65.25 35.7101 64.33 35.9901C64.07 36.0701 63.73 36.1201 63.6 36.3001C62.73 37.5101 61.83 36.7701 60.94 36.3901C60.48 36.1901 60.03 35.9701 59.49 35.4601C60.58 35.0201 61.67 34.5801 62.76 34.1401M61.42 33.9801C60.19 34.2501 59.22 35.1601 57.81 34.7501C58.76 33.6801 60.02 33.4201 61.42 33.9801ZM57.58 32.9301C57.87 32.8201 58.31 33.0701 58.68 33.1601C58.68 33.2601 58.7 33.3601 58.7 33.4601C57.64 33.7501 56.58 34.0501 55.52 34.3401C55.5 34.2501 55.47 34.1701 55.45 34.0801C56.16 33.6901 56.84 33.2201 57.58 32.9301ZM57.16 32.8201C55.16 33.2201 53.74 34.8101 51.69 34.2001C53.32 33.3001 54.87 32.1201 57.16 32.8201ZM49.25 31.6201C48.29 32.1301 47.46 32.5801 46.62 33.0201C46.57 33.0501 46.45 32.9401 46.36 32.8901C47.11 31.7701 48 31.3501 49.25 31.6301M47.44 31.0701C46.02 32.0301 44.77 32.6301 43.15 32.1301C44.53 31.7201 45.71 30.8701 47.44 31.0701ZM40.51 32.0601C42.08 31.8801 43.23 30.0901 45 30.6901C42.99 32.3001 41 32.6201 39.23 31.6201C39.88 30.5401 40.99 30.1301 42.23 30.5701C41.57 30.9601 40.95 31.3201 40.33 31.6901C40.39 31.8101 40.45 31.9401 40.51 32.0701M49.01 34.0201C48.49 33.9301 47.97 33.8301 47.35 33.7201C48.32 32.4201 50.05 31.7201 51.14 32.1101C50.48 32.4501 49.84 32.7301 49.25 33.0901C49.14 33.1601 48.98 33.2401 48.86 33.3401C48.82 33.3701 48.79 33.4101 48.76 33.4401C48.73 33.4801 48.72 33.5201 48.71 33.5601C48.69 33.6801 48.76 33.8301 49 34.0201C49 34.0201 49 34.0201 49.01 34.0201C49.65 33.6501 50.28 33.2501 50.93 32.9001C51.15 32.7801 51.37 32.6701 51.59 32.5701C52.18 32.3101 52.87 32.2801 53.51 32.1501C53.54 32.2601 53.57 32.3801 53.59 32.5001C52.51 33.0301 51.45 33.6001 50.34 34.0501C49.96 34.2001 49.45 34.0401 49 34.0101M9.38999 5.09009C10.65 4.28009 11.8 3.24009 13.08 3.15009C13.91 4.25009 14.54 5.22009 15.3 6.08009C16.66 7.60009 16.84 9.23009 15.78 10.9601C15.22 11.8801 15.14 12.8801 15.73 13.8301C16.3 14.7501 17.24 14.9701 18.21 14.7701C19.09 14.5901 19.96 14.2701 20.78 13.8801C23.21 12.7201 24.5 12.8901 26.39 14.7501C26.85 15.2001 27.27 15.6801 27.74 16.1101C29.01 17.2801 30.58 17.0501 32.11 17.0101C32.37 17.0101 32.62 16.9501 32.8 16.9301C32.19 18.2301 31.56 19.5101 31 20.8301C30.66 21.6201 30.36 22.6401 31.16 23.1501C31.97 23.6701 32.7 22.8201 33.16 22.2201C33.96 21.2001 34.56 20.0201 35.3 18.9501C35.55 18.5901 35.97 18.0901 36.31 18.0901C37.05 18.0901 37.86 18.2301 38.2 19.1401C38.92 21.0501 39.08 21.1201 41.09 20.7601C41.89 20.6201 42.68 20.4001 43.48 20.3901C43.9 20.3901 44.51 20.6401 44.71 20.9801C45.42 22.1901 46.76 22.9601 48.25 22.8201C48.54 22.7901 48.83 22.7501 49.3 22.6901C49.07 23.1701 48.88 23.5101 48.75 23.8701C48.52 24.5301 48.22 25.2001 48.17 25.8901C48.13 26.4401 48.41 27.0101 48.55 27.5701C49.08 27.3501 49.75 27.2601 50.11 26.8801C50.82 26.1301 51.47 25.2801 51.93 24.3701C52.4 23.4501 52.99 23.4301 53.73 23.8001C54.11 23.9901 54.44 24.3001 54.77 24.5901C55.81 25.4801 57.56 25.6301 58.9 24.6901C58.57 24.6401 58.21 24.5001 57.9 24.5601C56.57 24.8301 55.59 24.2901 54.63 23.4301C54.14 23.0001 53.42 22.8301 52.82 22.5501C52.98 21.5401 53.11 20.4801 53.34 19.4401C53.4 19.1801 53.8 18.8301 54.04 18.8301C54.28 18.8301 54.67 19.2001 54.73 19.4501C55.12 21.4401 55.1 21.4501 56.89 20.3201C58.15 19.5201 58.72 19.6801 59.54 20.8401C59.75 21.1401 60.29 21.2701 60.7 21.3401C60.99 21.3901 61.33 21.2101 61.67 21.1201C60.59 23.4301 59.55 25.6501 58.52 27.8801C58.44 28.0601 58.33 28.2701 58.35 28.4501C58.41 28.8901 58.54 29.3201 58.65 29.7501C59.06 29.6501 59.51 29.6201 59.87 29.4301C61.11 28.7801 61.78 27.6801 62.17 26.3701C62.29 25.9601 62.46 25.5701 62.62 25.1101C62.93 25.2301 63.22 25.2601 63.33 25.4101C64.05 26.3601 65.09 26.4201 66.14 26.5001C66.41 26.5201 66.72 26.5001 66.93 26.6301C68.01 27.2901 68.92 26.8101 69.86 26.3101C70.81 25.8101 71.4 25.0401 71.31 23.9701C71.21 22.7601 70.53 21.8401 69.58 21.1501C69.49 21.2101 69.41 21.2701 69.32 21.3301C69.48 21.5301 69.62 21.7501 69.79 21.9401C70.66 22.8801 70.87 24.1501 70.32 25.1001C69.84 25.9101 68.71 26.2501 67.47 25.9601C67.21 25.9001 66.94 25.8601 66.67 25.8301C65.56 25.7101 64.46 25.6201 63.69 24.6201C63.52 24.4001 63.17 24.3301 62.76 24.1201C63.35 22.4801 64.35 20.7901 62.88 18.9801C63.35 18.7101 63.63 18.5401 63.79 18.4501C64.5 18.8501 65.08 19.2201 65.69 19.5101C65.9 19.6101 66.29 19.6401 66.44 19.5101C67.15 18.9301 67.83 19.2101 68.51 19.5101C69.71 20.0501 71.04 20.3801 71.47 21.9601C71.66 22.6601 72.36 22.7001 73.26 22.3501C73.68 23.3701 74.14 24.3801 74.5 25.4201C75.65 28.8301 73.92 32.6301 69.97 33.7701C67.81 34.3901 65.7 34.0101 63.6 33.5501C59.86 32.7301 56.18 31.6701 52.33 31.3101C51.61 31.2401 50.4 31.4201 49.82 30.4301C49.8 30.3901 49.69 30.3901 49.63 30.3901C46.57 30.5601 43.66 29.2501 40.55 29.6201C40.73 28.5401 40.16 28.8701 39.7 29.0001C38.8 29.2501 36.71 28.5101 36.35 27.9901C35.65 27.8601 35.15 27.8301 34.69 27.6801C31.23 26.6001 28.02 24.7701 24.37 24.2101C23.11 24.0201 21.85 23.7501 20.65 23.3301C19.37 22.8801 18.07 22.3401 16.94 21.6101C13.86 19.6301 10.95 17.4701 8.37999 14.7801C5.92999 12.2201 6.31999 6.98009 9.37999 5.03009M15.3 2.97009C15.51 2.94009 15.74 3.03009 16.19 3.10009C15.99 2.68009 15.88 2.46009 15.79 2.28009C18.25 1.31009 20.63 1.89009 22.84 2.89009C25.05 3.90009 27.15 5.18009 29.23 6.44009C30.77 7.37009 32.2 8.47009 33.69 9.48009C35.17 10.4801 35.49 11.6101 34.71 13.2001C34.41 13.8001 34.05 14.3901 33.86 15.0201C33.59 15.9501 33.03 16.1901 32.13 16.1001C31.62 16.0501 31.09 16.3001 30.59 16.2401C29.91 16.1601 29.15 16.0801 28.62 15.7101C27.82 15.1701 27.18 14.4101 26.49 13.7201C25.18 12.4001 23.39 12.0301 21.67 12.7501C20.92 13.0601 20.21 13.4301 19.45 13.7201C18.99 13.9001 18.48 14.0401 17.99 14.0601C16.37 14.1201 15.6 12.9401 16.22 11.4401C16.51 10.7301 16.86 10.0301 17.01 9.29009C17.34 7.72009 16.6 6.49009 15.55 5.40009C15.2 5.04009 14.84 4.67009 14.57 4.25009C14.39 3.97009 14.37 3.58009 14.28 3.24009C14.61 3.15009 14.95 3.03009 15.29 2.99009M36.99 8.87009C37.01 8.97009 37.03 9.07009 37.06 9.17009C36.59 9.51009 36.11 9.84009 35.68 10.1501C34.82 9.48009 34.06 8.88009 33.29 8.29009C33.3 8.23009 33.31 8.17009 33.33 8.11009C34.55 8.36009 35.77 8.62009 37 8.87009M34.63 19.1201C33.7 20.5601 33.1 21.9301 31.49 22.3501C32.22 21.1001 32.95 19.8501 34.63 19.1201ZM33.08 17.9101C33.79 17.4301 34.5 16.9501 35.2 16.4701C35.26 16.5001 35.33 16.5201 35.39 16.5501C35.3 16.7801 35.27 17.1501 35.1 17.2301C34.47 17.5401 33.8 17.7601 33.14 18.0101C33.12 17.9801 33.09 17.9501 33.07 17.9201M34.59 17.8501C34.67 17.9401 34.74 18.0201 34.81 18.1001C33.77 18.8901 32.72 19.6901 31.68 20.4901C31.62 20.4201 31.57 20.3501 31.51 20.2901C32.53 19.4801 33.56 18.6701 34.58 17.8501M38.92 9.08009C38.98 9.08009 39.04 9.12009 39.27 9.21009C38.7 9.56009 38.2 9.85009 37.72 10.1701C37.26 10.4701 36.82 10.7901 36.38 11.1001C36.44 11.2001 36.5 11.3001 36.56 11.3901C37.03 11.1401 37.49 10.8801 37.96 10.6301C37.76 10.8001 37.56 10.9701 37.36 11.1401C37.15 11.3201 36.93 11.5101 36.73 11.7101C36.44 11.9901 36.19 12.3201 35.93 12.6301C36 12.6901 36.07 12.7401 36.14 12.8001C37.94 11.8401 39.74 10.8801 41.54 9.92009C41.61 10.0401 41.68 10.1601 41.74 10.2701C39.38 11.9701 36.04 12.2601 34.71 15.4001C34.62 15.3101 34.53 15.2201 34.44 15.1301C34.71 14.5401 35.01 13.9601 35.26 13.3601C35.46 12.8701 35.59 12.3501 35.74 11.8401C35.86 11.4201 35.84 10.7201 36.1 10.6001C37.08 10.1501 37.66 8.94009 38.93 9.06009M37.99 10.6001C37.99 10.6001 38.01 10.5801 38.02 10.5701C38.02 10.5701 38.03 10.5701 38.04 10.5701C38.04 10.5701 38.04 10.5701 38.03 10.5701C38.01 10.5801 37.99 10.5901 37.98 10.6001C37.98 10.6001 37.99 10.6001 38 10.5901M40.92 9.73009C40.16 10.1201 39.52 10.5601 38.8 10.6301C38.56 10.6501 38.32 10.6301 38.05 10.5701C38.86 10.0201 39.58 9.19009 40.92 9.73009ZM38.63 12.7201C38.76 12.7601 38.9 12.8001 39.03 12.8301C38.95 13.6301 38.89 14.4301 38.79 15.2201C38.76 15.4501 38.63 15.6501 38.57 15.8801C38.05 17.7401 37.97 17.7801 35.77 17.0801C36.65 15.4901 36.76 13.5201 38.63 12.7201ZM43.88 11.2101C42.42 11.9501 41.11 12.6101 39.76 13.3001C39.66 12.9201 39.55 12.5401 39.41 12.0301C40.87 11.7401 41.88 9.75009 43.88 11.2201M45.53 11.6901C44.51 12.1901 43.49 12.6801 42.48 13.1801C41.55 13.6401 40.63 14.1201 39.71 14.5901C39.69 14.6701 39.67 14.7601 39.66 14.8401C39.7 14.9201 39.73 15.0001 39.77 15.0801C40.59 14.6701 41.41 14.2701 42.24 13.8601C42.3 13.9401 42.36 14.0201 42.41 14.1001C41.61 14.9601 40.81 15.8301 39.94 16.7701C39.73 16.2601 39.51 15.9901 39.54 15.7501C39.58 15.4701 39.61 15.1401 39.66 14.8301C39.63 14.7701 39.6 14.7101 39.57 14.6401C39.62 14.6201 39.66 14.5901 39.71 14.5701C39.77 14.3001 39.87 14.0701 40.04 13.9601C41.39 13.0401 42.88 12.3101 44.35 11.5701C44.67 11.4101 45.11 11.5001 45.54 11.6701M47.82 12.2001C46.49 12.6601 45.35 13.7901 43.77 13.2601C45.08 12.7301 46.13 11.2001 47.82 12.2001ZM49.8 20.9301C50.1 21.3501 49.87 22.0201 49.19 21.9801C48.16 21.9301 47.14 21.7601 46.13 21.5501C45.88 21.5001 45.63 21.1001 45.51 20.8101C45.05 19.7301 44.62 19.4401 43.44 19.6101C42.41 19.7601 41.39 20.0201 40.36 20.1101C40.01 20.1401 39.43 19.9301 39.29 19.6501C39 19.0801 38.94 18.4001 38.81 17.7601C38.8 17.6901 38.98 17.5101 39.07 17.5101C40.5 17.5701 41.08 16.3501 41.97 15.6001C42.43 15.2101 42.91 14.8501 43.38 14.4801C43.46 14.5601 43.55 14.6301 43.63 14.7001C43.56 15.1901 43.47 15.6801 43.43 16.1701C43.36 17.0901 43.8 17.4201 44.65 17.0901C45.27 16.8401 45.88 16.5501 46.5 16.2801C47.14 16.0001 47.44 16.1601 47.44 16.9001C47.44 18.3201 47.76 18.5501 49.12 18.1901C49.51 18.0901 49.9 17.9901 50.29 17.9101C50.45 17.8801 50.62 17.9101 51.11 17.8901C50.69 18.6301 50.42 19.2301 50.03 19.7501C49.75 20.1301 49.37 20.3001 49.8 20.9001M49.92 12.1901C49.94 12.2801 49.97 12.3601 49.99 12.4501C48.13 13.2201 46.26 13.9901 44.4 14.7701C44.46 14.9101 44.52 15.0501 44.58 15.1901C46.94 14.2801 49.31 13.3601 51.67 12.4501C49.61 13.9601 47.03 14.3401 44.91 15.6701C44.96 15.7701 45 15.8701 45.05 15.9701C47.26 15.0901 49.54 14.3601 51.65 13.2701C53.52 12.3001 54.98 13.1601 56.88 13.7301C54.3 14.9701 51.65 15.3001 49.46 16.6601C49.51 16.7901 49.56 16.9201 49.61 17.0401C51.09 16.4701 52.53 15.7101 54.07 15.3801C55.55 15.0601 56.81 13.6701 58.55 14.5001C57.19 15.0401 55.85 15.6601 54.46 16.1001C52.74 16.6401 50.98 17.0401 49.22 17.4401C48.91 17.5101 48.24 17.3001 48.24 17.2101C48.23 16.6401 47.85 15.9101 48.75 15.6001C50.21 15.0901 51.66 14.5501 53.12 14.0001C53.55 13.8401 53.96 13.6301 54.39 13.4501C54.36 13.3701 54.33 13.2801 54.3 13.2001C50.97 14.2801 47.64 15.3501 44.31 16.4301C43.99 14.6801 44.22 14.2701 45.75 13.6801C46.69 13.3101 47.6 12.8701 48.54 12.5101C48.99 12.3401 49.48 12.3001 49.95 12.2001M52.62 19.3301C52.69 19.4001 52.76 19.4801 52.82 19.5501C52.2 20.0701 51.58 20.6001 50.89 21.1801C50.95 19.8401 51.23 19.5601 52.62 19.3301ZM50.27 22.7301C50.21 22.6501 50.15 22.5601 50.09 22.4801C50.88 21.8601 51.67 21.2401 52.47 20.6201C52.55 20.7201 52.62 20.8101 52.69 20.9101C51.88 21.5201 51.08 22.1201 50.27 22.7301ZM49.2 26.6901C48.72 25.9501 48.79 24.6301 49.63 23.7701C50.3 23.0801 51.29 22.6901 52.14 22.1701C52.19 22.2101 52.24 22.2601 52.28 22.3101C51.51 22.8701 50.54 23.3001 50.01 24.0301C49.5 24.7401 49.46 25.7701 49.19 26.6901M61.27 15.0901C57.89 16.3701 54.74 17.5601 51.59 18.7501C51.52 18.7001 51.45 18.6501 51.38 18.6001C51.77 18.1801 52.07 17.5901 52.55 17.3901C54.74 16.4501 56.96 15.5601 59.22 14.7901C59.74 14.6101 60.43 14.9601 61.27 15.1001M59.81 19.8701C60.69 19.5901 61.43 19.3401 62.23 19.0801C62.42 19.4801 62.58 19.8301 62.85 20.4201C61.78 20.0801 60.78 21.3001 59.81 19.8701ZM61.7 23.0401C62.02 22.3601 62.34 21.6801 62.65 20.9901C63.53 21.4101 63.53 21.4101 63.52 21.4201C63.2 22.1001 62.89 22.7801 62.57 23.4601C62.57 23.4601 62.57 23.4601 61.69 23.0401M61.74 25.1701C61.79 26.7601 60.67 28.3701 59.1 28.8801C59.05 26.8201 60.1 25.3901 61.74 25.1701ZM62.34 15.5801C64.74 16.5301 66.83 17.3901 69.52 18.5201C69.45 18.6701 69.38 18.8201 69.31 18.9601C68.74 18.6401 67.86 18.2301 67.2 17.8001C66.6 17.4201 66.47 17.4901 66.27 18.6201C65.68 18.6401 65.1 18.7801 65 17.8301C64.98 17.6101 64.2 17.3101 63.78 17.3201C63.45 17.3201 63.09 17.7001 62.8 17.9601C61.73 18.9201 60.63 19.6701 59.07 19.0401C58.99 19.0101 58.89 18.9901 58.8 18.9801C58.64 18.9801 58.48 18.9901 58.31 19.0201C58.23 19.0301 58.14 19.0401 58.06 19.0501C58 19.0501 57.94 19.0701 57.88 19.0701C57.68 19.1301 57.48 19.1901 57.29 19.2601C56.76 19.5901 56.24 19.9201 55.69 20.2601C55.49 19.4301 55.32 18.7501 55.1 17.8401C55.91 17.5701 56.89 17.2601 57.86 16.9201C59 16.5201 60.12 16.0701 61.27 15.6801C61.6 15.5701 62.07 15.4601 62.36 15.5701M71.16 34.2701C72.07 33.5401 73.14 32.8601 73.96 31.9701C75.22 30.6001 75.89 28.8201 75.58 27.0301C75.23 25.0501 74.62 23.0301 73.67 21.2801C72.66 19.4301 70.63 18.3601 68.78 17.5301C65.19 15.9201 61.46 14.6301 57.74 13.3301C55.97 12.7101 54.13 12.2601 52.28 11.9401C49.05 11.3901 45.74 11.2801 42.71 9.74009C39.78 8.25009 36.48 7.93009 33.36 7.07009C32.01 6.70009 30.82 6.16009 29.76 5.36009C27.14 3.37009 24.18 2.13009 21.06 1.20009C18.75 0.520086 16.54 0.650086 14.46 1.95009C14.19 2.12009 13.84 2.17009 13.52 2.23009C11.18 2.70009 9.37999 4.09009 7.66999 5.63009C6.39999 6.77009 6.09999 8.25009 6.03999 9.83009C6.00999 10.5901 5.68999 11.0101 5.01999 11.3701C1.98999 13.0001 0.559991 15.4901 0.649991 19.0101C0.699991 21.0801 1.44999 22.7701 2.42999 24.4801C4.14999 27.4601 6.40999 29.9901 9.35999 31.6901C11.97 33.1901 14.83 34.2501 17.61 35.4501C18.59 35.8701 19.63 36.2101 20.67 36.4501C23.62 37.1301 26.56 37.8501 29.54 38.3701C35.96 39.4801 41.94 41.9901 48.06 44.0501C52.17 45.4301 56.3 46.6101 60.63 46.9301C63.7 47.1501 66.69 46.7601 69.03 44.5501C69.97 43.6601 70.6 42.4001 71.25 41.2401C72.54 38.8901 72.54 36.5301 71.18 34.2501" fill="white"/>
<path d="M57.2501 19.32C57.4501 19.26 57.6501 19.2 57.8401 19.13C57.6901 18.99 57.5301 18.85 57.3401 18.67C59.5201 17.98 61.7101 17.29 63.9101 16.6C61.8801 16.28 56.0501 18.38 55.8501 19.36C56.3201 19.34 56.7801 19.33 57.2501 19.31" fill="white"/>
<path d="M74.12 28C72.62 28.05 69.93 28.98 69.8 29.48C71.27 29.28 72.79 29.38 74.12 28Z" fill="white"/>
<path d="M69.9899 29.9902C69.7699 30.0502 69.5999 30.3001 69.3999 30.4601C69.4399 30.5501 69.4899 30.6502 69.5299 30.7402C70.5999 30.5402 71.6699 30.3701 72.7299 30.1301C72.8999 30.0901 72.9899 29.7501 73.1199 29.5601C72.9199 29.5001 72.7099 29.3601 72.5299 29.3901C71.6799 29.5601 70.8299 29.7502 69.9899 29.9902Z" fill="white"/>
<path d="M8.26987 12.8202C8.46987 11.8602 8.67987 10.9502 8.84987 10.0402C8.86987 9.91016 8.80987 9.68016 8.70987 9.62016C8.59987 9.55016 8.28987 9.58016 8.25987 9.65016C8.02987 10.1802 7.74987 10.7202 7.68987 11.2702C7.62987 11.8502 7.62987 12.5202 8.26987 12.8302" fill="white"/>
<path d="M9.87993 14.43C10.0799 13.59 10.2699 12.83 10.4199 12.07C10.4499 11.91 10.3699 11.64 10.2499 11.57C10.1499 11.5 9.86993 11.6 9.74993 11.7C9.03993 12.3 9.09993 13.71 9.87993 14.43Z" fill="white"/>
<path d="M11.1001 15.84C11.1601 15.79 11.2101 15.74 11.2701 15.68C11.2701 14.79 11.2801 13.9 11.2901 12.76C10.2901 13.43 10.3301 14.15 10.4801 14.83C10.5601 15.19 10.8901 15.5 11.1001 15.84Z" fill="white"/>
<path d="M12.7199 17.5702C12.7899 17.5102 12.8599 17.4502 12.9199 17.3902C12.8499 16.6002 12.7799 15.8202 12.7099 14.9402C11.7899 15.3302 11.8399 15.9802 12.0099 16.5702C12.1199 16.9402 12.4699 17.2402 12.7199 17.5702Z" fill="white"/>
<path d="M14.2501 18.6201C14.2901 17.8601 14.3401 17.2101 14.3401 16.5601C14.3401 16.4101 14.1801 16.1401 14.0601 16.1201C13.9201 16.1001 13.6901 16.2401 13.5901 16.3801C13.1701 16.9601 13.4501 18.0001 14.2601 18.6101" fill="white"/>
<path d="M71.5699 30.76C70.5199 30.89 69.4699 31.03 68.1799 31.19C69.1699 31.85 71.0499 31.64 71.5699 30.76Z" fill="white"/>
<path d="M16.1999 19.9501C16.0799 19.3101 15.9999 18.7501 15.8699 18.2001C15.8299 18.0301 15.6999 17.8601 15.5599 17.7401C15.5199 17.7001 15.2999 17.7801 15.2299 17.8601C14.7299 18.4401 15.2999 19.7501 16.1899 19.9501" fill="white"/>
<path d="M17.5901 20.8601C17.6901 20.8101 17.7901 20.7601 17.8901 20.7101C17.8801 20.3201 17.9201 19.9201 17.8301 19.5401C17.7901 19.3501 17.5301 19.2201 17.3601 19.0601C17.2401 19.2601 16.9701 19.4901 17.0101 19.6401C17.1301 20.0601 17.3801 20.4501 17.5801 20.8601" fill="white"/>
<path d="M20.67 21.8401C20.4 21.1401 20.22 20.6401 20.03 20.1401C19.89 20.2501 19.65 20.3601 19.63 20.4901C19.56 21.0701 19.67 21.5901 20.67 21.8501" fill="white"/>
<path d="M66.33 43.6702C65.5 43.6902 64.65 43.6902 63.83 43.8202C63.31 43.9002 62.59 43.8802 62.54 44.7502C60.88 44.4902 59.22 44.2202 57.56 43.9602C57.55 44.1002 57.54 44.2402 57.52 44.3802C59.35 44.7402 61.18 45.1202 63.01 45.4502C63.22 45.4902 63.47 45.3302 63.69 45.2202C63.89 45.1202 64.06 44.9002 64.26 44.8502C65 44.6702 65.75 44.5702 66.48 44.3802C66.65 44.3402 66.76 44.0802 66.9 43.9202C66.71 43.8302 66.51 43.6702 66.32 43.6802" fill="white"/>
<path d="M16 29.7602C15.75 29.9302 15.45 30.0702 15.25 30.2902C15.13 30.4302 15.16 30.7102 15.13 30.9302C15.08 30.9302 15.03 30.9202 14.98 30.9102C15.01 30.7002 15.08 30.4802 15.05 30.2702C15.02 29.9902 14.91 29.7202 14.84 29.4502C14.58 29.6202 14.22 29.7302 14.08 29.9702C13.74 30.5702 14.14 31.5002 14.79 31.7102C15.26 31.8602 15.75 31.9402 16.33 32.0702C16.28 31.5202 16.24 31.0402 16.18 30.5502C16.14 30.2802 16.06 30.0102 16 29.7502" fill="white"/>
<path d="M4.43998 23.5402C4.43998 23.1302 4.48998 22.8202 4.43998 22.5402C4.38998 22.2502 4.23998 21.9802 4.13998 21.7002C3.98998 21.9802 3.75998 22.2402 3.67998 22.5302C3.30998 24.0102 4.82998 24.3002 5.32998 25.2402C5.43998 25.2102 5.55998 25.1702 5.66998 25.1402C5.59998 24.4402 5.53998 23.7402 5.44998 22.8902C4.98998 23.1802 4.75998 23.3202 4.42998 23.5302" fill="white"/>
<path d="M65.1701 42.04C66.3201 42.39 69.1801 41.52 69.5301 40.51C67.9701 40.95 66.5301 41.35 65.1001 41.75C65.1201 41.84 65.1501 41.94 65.1701 42.03" fill="white"/>
<path d="M19.91 30.86C19.77 30.8 19.42 30.87 19.39 30.96C19.22 31.47 18.99 32.02 19.05 32.52C19.12 33.07 19.47 33.61 20.01 33.61C20.06 32.79 20.12 32.07 20.13 31.33C20.13 31.17 20.03 30.91 19.91 30.86Z" fill="white"/>
<path d="M17.8301 30.3801C17.3401 30.4001 16.9801 31.4001 17.2201 32.0801C17.4201 32.6201 17.6801 33.1701 18.2401 32.8501C18.2601 32.0801 18.3201 31.5701 18.2601 31.0701C18.2301 30.8201 17.9701 30.3801 17.8301 30.3901" fill="white"/>
<path d="M22.38 32.81H22.65C22.65 32.54 22.65 32.26 22.65 31.98C22.35 32.08 21.87 32.12 21.8 32.31C21.62 32.84 21.58 33.42 21.54 33.99C21.54 34.08 21.83 34.2 21.99 34.3C22.09 34.13 22.25 33.96 22.29 33.77C22.36 33.46 22.35 33.13 22.38 32.81Z" fill="white"/>
<path d="M25.8901 33.0701C25.8501 33.0101 25.5001 33.0501 25.4601 33.1301C25.2501 33.5501 24.9701 33.9801 24.9501 34.4201C24.9301 34.9901 25.2701 35.4101 25.8401 35.3701C25.9101 34.6701 25.9701 34.1302 26.0001 33.5802C26.0101 33.4002 25.9801 33.2001 25.8801 33.0601" fill="white"/>
<path d="M67.3601 42.7298C67.3201 42.5998 67.2801 42.4698 67.2501 42.3398C66.3701 42.5698 65.4901 42.7998 64.6201 43.0298C64.6801 43.2298 64.7501 43.4398 64.8101 43.6398C65.6001 43.1498 66.6701 43.5398 67.3701 42.7298" fill="white"/>
<path d="M28.0999 34.3902C28.0999 34.2302 27.9299 33.9402 27.8499 33.9402C27.6499 33.9402 27.3799 34.0402 27.2699 34.1902C26.7899 34.8402 27.1799 35.7302 28.1999 36.0402C28.1099 35.6602 28.0099 35.4202 27.9999 35.1702C27.9999 34.9102 28.1199 34.6502 28.1099 34.3902" fill="white"/>
<path d="M23.8399 32.53C23.6899 32.47 23.3799 32.56 23.2499 32.69C22.6099 33.33 22.9799 34.26 23.8799 34.48C23.9399 33.96 24.0099 33.53 24.0299 33.1C24.0299 32.9 23.9699 32.58 23.8499 32.54" fill="white"/>
<path d="M13.2 28.8301C12.94 29.0901 12.51 29.3101 12.46 29.6001C12.34 30.3401 12.7 30.7901 13.55 30.7301C13.48 30.3401 13.43 30.0001 13.37 29.6601C13.32 29.3801 13.26 29.1001 13.21 28.8301" fill="white"/>
<path d="M38.8399 37.0601C38.8899 36.9801 38.8699 36.7301 38.8099 36.7101C38.6499 36.6301 38.4399 36.5701 38.2699 36.6001C37.5599 36.7401 37.3399 37.5601 37.8899 38.7401C38.0799 38.2401 38.1399 37.9701 38.2799 37.7501C38.4299 37.5001 38.6799 37.3101 38.8399 37.0701" fill="white"/>
<path d="M34.1701 36.5901C34.2001 36.9001 34.5601 37.1801 34.8501 37.5701C35.0801 36.7601 35.2301 36.2501 35.4201 35.6001C34.6401 35.7001 34.0901 35.8801 34.1701 36.6001" fill="white"/>
<path d="M10.4601 28.5401C10.4901 29.1201 10.6801 29.6801 11.6001 29.5901C11.4401 28.9901 11.3001 28.4601 11.0801 27.6301C10.7801 28.0501 10.4401 28.3001 10.4601 28.5401Z" fill="white"/>
<path d="M31.55 34.69C31.43 34.62 31.15 34.68 31.03 34.78C30.51 35.2 30.67 36.05 31.32 36.45C31.46 36.03 31.62 35.62 31.71 35.2C31.75 35.04 31.67 34.77 31.55 34.69Z" fill="white"/>
<path d="M28.5901 34.8501C28.5201 35.3801 28.4201 36.0001 29.5901 36.1401C29.4001 35.4301 29.2501 34.9001 29.1001 34.3501C28.9201 34.5101 28.6101 34.6601 28.5901 34.8401" fill="white"/>
<path d="M32.4099 35.2001C32.3299 35.6501 32.0499 36.2601 33.1099 36.5601C33.0699 35.8601 33.0499 35.3501 33.0199 34.8301C32.8099 34.9501 32.4399 35.0401 32.4099 35.2001Z" fill="white"/>
<path d="M36.0401 36.8902C36.0901 37.2202 36.3201 37.5102 36.4801 37.8202C36.6501 37.7402 36.8201 37.6602 36.9901 37.5802C36.8601 37.1902 36.7201 36.8002 36.5901 36.4102C36.3901 36.5702 36.0101 36.7702 36.0301 36.9002" fill="white"/>
<path d="M46.35 40.2401C46.19 40.6101 46.11 41.0201 46.01 41.4101C46.2 41.4601 46.39 41.5101 46.57 41.5501C46.7 41.1101 46.82 40.6601 46.95 40.2201C46.74 40.2201 46.39 40.1601 46.35 40.2401Z" fill="white"/>
<path d="M5.98008 24.7502C5.97008 25.1502 6.09008 25.5602 6.16008 25.9602C6.32008 25.9502 6.48008 25.9302 6.63008 25.9102C6.63008 25.4302 6.63008 24.9402 6.63008 24.4602C6.40008 24.5602 5.98008 24.6402 5.98008 24.7502Z" fill="white"/>
<path d="M42.3299 38.79C42.1999 39.11 42.2799 39.5 42.2699 39.87C42.4499 39.87 42.6299 39.88 42.7999 39.89C42.8899 39.42 42.9799 38.95 43.0599 38.48C42.7999 38.58 42.3999 38.62 42.3199 38.79" fill="white"/>
<path d="M18.4399 8.16007C18.1199 8.29007 17.8799 8.64007 17.6199 8.91007C17.5899 8.94007 17.7199 9.13007 17.7699 9.24007C18.0299 9.09007 18.2799 8.91007 18.5599 8.78007C18.8899 8.63007 19.2399 8.52007 19.5799 8.38007C19.8999 8.25007 20.2099 8.10007 20.5199 7.97007C20.4799 7.84007 20.4399 7.70007 20.3899 7.57007C19.7299 7.76007 19.0599 7.90007 18.4299 8.16007" fill="white"/>
<path d="M19.0199 4.42008C19.0199 4.42008 19.0199 4.42008 19.0299 4.42008C18.5599 4.98008 18.0699 5.53008 17.6299 6.12008C17.5399 6.23008 17.5899 6.50008 17.6699 6.65008C17.7099 6.72008 17.9999 6.76008 18.0999 6.70008C18.6699 6.32008 19.2199 5.90008 19.7699 5.50008C19.6399 5.32008 19.4099 5.08008 19.4399 5.04008C19.6799 4.71008 19.6399 4.59008 19.5099 4.53008C19.4799 4.52008 19.4399 4.51008 19.3999 4.50008C19.2799 4.47008 19.1299 4.47008 19.0299 4.43008C19.0299 4.43008 19.0299 4.43008 19.0399 4.42008C19.0399 4.42008 19.0299 4.42008 19.0199 4.42008C19.1999 4.29008 19.3799 4.15008 19.6199 3.97008C19.6999 3.91008 19.7899 3.84008 19.8899 3.77008C18.3299 3.67008 17.0799 4.31008 16.8899 5.12008C17.5899 4.89008 18.2999 4.66008 19.0099 4.42008" fill="white"/>
<path d="M18.06 7.24012C17.98 7.36012 18.04 7.61012 18.12 7.76012C18.15 7.81012 18.46 7.80012 18.57 7.72012C19.08 7.32012 19.57 6.90012 20.06 6.48012C19.2 6.25012 18.52 6.52012 18.07 7.24012" fill="white"/>
<path d="M18.14 9.80015C18.01 9.88015 18.08 10.2701 18.04 10.7301C18.87 10.1301 19.47 9.70015 20.06 9.27015C19.99 9.15015 19.92 9.02015 19.85 8.90015C19.27 9.19015 18.68 9.45015 18.14 9.80015Z" fill="white"/>
</svg>
